<svg xmlns="http://www.w3.org/2000/svg" xmlns:svg="http://www.w3.org/2000/svg" id="svg8" width="457.041" height="597.452" version="1.1" viewBox="0 0 120.925 158.076"><metadata id="metadata5"/><g id="layer1" transform="translate(-40.83243,-120.27503)"><rect style="fill:#000;fill-opacity:1;stroke:#000;stroke-width:5.46500015;stroke-linejoin:round;stroke-miterlimit:4;stroke-dasharray:none;stroke-dashoffset:0;stroke-opacity:1" id="rect4487" width="115.46" height="152.611" x="43.565" y="123.008" rx="57.73" ry="31.003"/><path style="fill:#fff;fill-opacity:1;stroke:#fff;stroke-width:.26458332px;stroke-linecap:butt;stroke-linejoin:miter;stroke-opacity:1" id="path4489" d="m 76.935871,139.31088 c -19.848757,0.78229 -27.253632,21.49063 -22.635607,38.13402 4.417778,16.6322 42.392406,19.65238 18.186681,36.80204 -17.616477,19.70547 -17.859849,22.92314 -19.420516,46.9383 -12.786984,16.52044 16.881395,17.09106 29.675502,13.89839 26.056469,1.53972 51.976509,2.63987 71.759119,-16.03617 7.29358,-24.19681 -32.85447,-56.67886 -25.58949,-61.27403 7.81707,-4.8767 15.63415,-9.75339 23.45123,-14.63009 1.3577,-16.85684 2.87886,-45.48466 -22.30829,-42.32099 -15.26102,9.47238 -33.722618,20.25848 -47.613103,1.3361 l -2.65996,-1.57579 z"/><path style="fill:#000;fill-opacity:1;fill-rule:evenodd;stroke:none;stroke-width:.28222221px;stroke-linecap:butt;stroke-linejoin:miter;stroke-opacity:1" id="path4144" d="m 82.348296,188.04946 41.622774,-0.0356 -2.74397,1.10472 -6.55701,3.70614 -25.087697,0 z"/><circle style="fill:#3a518f;fill-opacity:1;stroke:#fff;stroke-width:5.46500015;stroke-linejoin:round;stroke-miterlimit:4;stroke-dasharray:none;stroke-dashoffset:0;stroke-opacity:1" id="path4496" cx="74.167" cy="164.835" r="18.308"/><circle id="circle4498" cx="132.376" cy="164.835" r="18.308" style="fill:#3a518f;fill-opacity:1;stroke:#fff;stroke-width:5.46500015;stroke-linejoin:round;stroke-miterlimit:4;stroke-dasharray:none;stroke-dashoffset:0;stroke-opacity:1"/><path style="fill:#d27800;fill-opacity:1;stroke:none;stroke-width:5.46500015;stroke-linejoin:round;stroke-miterlimit:4;stroke-dasharray:none;stroke-dashoffset:0;stroke-opacity:1" id="path4500" d="m 103.16063,168.22433 c -11.423074,0.005 -20.714357,8.84876 -20.835939,19.83186 13.891833,0.78359 27.783669,1.45305 41.675499,0 -0.1216,-10.98446 -9.41507,-19.82855 -20.83956,-19.83186 z"/><path style="fill:#d27800;fill-opacity:1;stroke:none;stroke-width:.26458332px;stroke-linecap:butt;stroke-linejoin:miter;stroke-opacity:1" id="path4507" d="m 82.324691,188.58536 19.766899,12.24056 21.90859,-12.24056 c -14.32635,3.47613 -28.105818,2.57727 -41.675489,0 z"/><rect id="rect4526" width="115.46" height="152.611" x="43.565" y="123.008" rx="57.73" ry="31.003" style="fill:none;fill-opacity:1;stroke:#000;stroke-width:5.46500015;stroke-linejoin:round;stroke-miterlimit:4;stroke-dasharray:none;stroke-dashoffset:0;stroke-opacity:1"/><circle id="circle4154" cx="74.167" cy="164.835" r="18.308" style="fill:#3a518f;fill-opacity:1;stroke:#fff;stroke-width:5.46500015;stroke-linejoin:round;stroke-miterlimit:4;stroke-dasharray:none;stroke-dashoffset:0;stroke-opacity:1"/><circle style="fill:#3a518f;fill-opacity:1;stroke:#fff;stroke-width:5.46500015;stroke-linejoin:round;stroke-miterlimit:4;stroke-dasharray:none;stroke-dashoffset:0;stroke-opacity:1" id="circle4156" cx="132.376" cy="164.835" r="18.308"/></g></svg>